<svg width="72" height="72" viewBox="0 0 72 72" fill="none" xmlns="http://www.w3.org/2000/svg">
<path d="M8 0.5H64C68.1421 0.5 71.5 3.85786 71.5 8V64C71.5 68.1421 68.1421 71.5 64 71.5H8C3.85786 71.5 0.5 68.1421 0.5 64V8C0.5 3.85786 3.85786 0.5 8 0.5Z" fill="white"/>
<path d="M8 0.5H64C68.1421 0.5 71.5 3.85786 71.5 8V64C71.5 68.1421 68.1421 71.5 64 71.5H8C3.85786 71.5 0.5 68.1421 0.5 64V8C0.5 3.85786 3.85786 0.5 8 0.5Z" stroke="#F3F4F6"/>
<path d="M27.7306 13.5078C27.8179 13.6606 27.7961 13.8352 27.7524 13.988C27.7088 14.1408 27.6651 14.3154 27.7088 14.49C27.7306 14.5992 27.8179 14.6865 27.8397 14.7956C27.9052 14.992 27.7961 15.2321 27.5996 15.3195C27.3159 15.1885 27.0103 15.0575 26.7266 14.9266C26.9448 14.5337 27.0976 14.0971 27.1413 13.6606" fill="#E9571F"/>
<g opacity="0.5">
<path d="M27.7326 13.5088C27.8199 13.6616 27.798 13.8362 27.7544 13.989C27.7107 14.1418 27.6671 14.3164 27.7107 14.491C27.7326 14.6001 27.8199 14.6874 27.8417 14.7966C27.9072 14.993 27.798 15.2331 27.6016 15.3204C27.3178 15.1895 27.0123 15.0585 26.7285 14.9275C26.9468 14.5347 27.0996 14.0981 27.1432 13.6616" fill="#1E2832"/>
</g>
<path d="M25.4603 13.3111C25.7222 13.3766 25.2857 13.8132 25.3075 14.0751C25.3294 14.337 25.373 14.6208 25.2639 14.8609C24.74 14.8609 24.2162 14.7517 23.7578 14.5116C23.8888 13.9878 23.9979 13.4639 24.1289 12.9619C24.107 12.9619 25.2202 13.2457 25.4603 13.3111Z" fill="#E9571F"/>
<path d="M39.4067 8.98633H31.418V20.5328H39.4067V8.98633Z" fill="#126E53"/>
<path d="M46.6098 8.98633H38.6211V20.5328H46.6098V8.98633Z" fill="#29B273"/>
<path d="M44.7085 18.2223C44.7085 18.2223 44.7085 18.1787 44.7085 18.0914C44.7085 18.0041 44.7085 17.8731 44.7085 17.7203C44.7085 17.3929 44.7085 16.9345 44.6867 16.3452C44.6867 15.1665 44.6648 13.5295 44.6648 11.6306L44.7085 11.6742C43.5953 11.6742 42.373 11.6742 41.0852 11.6742C41.0634 11.696 41.1943 11.5651 41.1507 11.6087V11.6306V11.6524V11.7179V11.827V12.0671C41.1507 12.2199 41.1507 12.3727 41.1507 12.5255C41.1507 12.8311 41.1507 13.1366 41.1507 13.4422C41.1507 14.0315 41.1507 14.6209 41.1507 15.1665C41.1507 16.2797 41.1507 17.2838 41.1507 18.1787L41.107 18.135C42.2202 18.135 43.1151 18.1568 43.7481 18.1568C44.0537 18.1568 44.2938 18.1568 44.4684 18.1787C44.5557 18.1787 44.5994 18.1787 44.6648 18.1787C44.6867 18.2005 44.7085 18.2005 44.7085 18.2223C44.7085 18.2223 44.6867 18.2223 44.643 18.2223C44.5994 18.2223 44.5339 18.2223 44.4684 18.2223C44.2938 18.2223 44.0537 18.2223 43.7481 18.2442C43.1151 18.2442 42.1984 18.266 41.0852 18.266H41.0416V18.2223C41.0416 17.3492 41.0416 16.3234 41.0416 15.2102C41.0416 14.6645 41.0416 14.0752 41.0416 13.4859C41.0416 13.1803 41.0416 12.8747 41.0416 12.5691C41.0416 12.4163 41.0416 12.2636 41.0416 12.1108V11.8707V11.7615V11.696V11.6742V11.6524C40.9979 11.696 41.107 11.5869 41.107 11.5869C42.3948 11.5869 43.6171 11.5869 44.7303 11.5869H44.774V11.6306C44.774 13.5513 44.7521 15.2102 44.7521 16.3889C44.7521 16.9564 44.7303 17.4147 44.7303 17.7421C44.7303 17.8949 44.7303 18.0041 44.7303 18.0914C44.7085 18.1787 44.7085 18.2223 44.7085 18.2223Z" fill="#126E53"/>
<path d="M43.966 15.2723C43.966 15.2941 43.9223 15.3159 43.9223 15.3814C43.9005 15.4469 43.966 15.556 44.0533 15.5124C44.1624 15.4687 44.1406 15.3814 44.0751 15.3159C44.0314 15.2723 43.9878 15.2941 43.966 15.2723C43.966 15.2723 44.0314 15.2068 44.1187 15.2723C44.1624 15.2941 44.2279 15.3596 44.2279 15.4251C44.2279 15.5124 44.1624 15.5997 44.0751 15.6215C43.9878 15.6433 43.8786 15.6215 43.835 15.556C43.7913 15.4905 43.7913 15.4032 43.8132 15.3596C43.8786 15.2504 43.966 15.2504 43.966 15.2723Z" fill="#126E53"/>
<path d="M54.8359 18.5032C54.8359 18.5032 54.8359 18.4595 54.8359 18.3504C54.8359 18.2412 54.8359 18.0885 54.8359 17.9138C54.8359 17.521 54.8359 16.9316 54.814 16.1677L54.8359 16.1895C51.4527 16.2113 44.3589 16.2113 36.1519 16.2113C27.7267 16.2113 20.4802 16.1895 17.1625 16.1895L17.1843 16.1677C17.1843 16.8225 17.1843 17.3245 17.1625 17.6737C17.1625 17.3245 17.1625 16.8225 17.1406 16.1677V16.1459H17.1625C20.4583 16.124 27.7267 16.124 36.1519 16.124C44.3371 16.124 51.4309 16.1459 54.8359 16.1459H54.8577V16.1677C54.8577 16.9316 54.8577 17.4991 54.8359 17.9138C54.8359 18.1103 54.8359 18.2631 54.8359 18.3504C54.8577 18.4595 54.8359 18.5032 54.8359 18.5032Z" fill="#126E53"/>
<path d="M18.3877 18.4412C18.3659 18.4412 18.3223 17.9392 18.3223 17.328C18.3223 16.7169 18.3441 16.2148 18.3877 16.2148C18.4096 16.2148 18.4532 16.7169 18.4532 17.328C18.4532 17.9392 18.4314 18.4412 18.3877 18.4412Z" fill="#126E53"/>
<path d="M19.8252 18.4412C19.8034 18.4412 19.7598 17.9392 19.7598 17.328C19.7598 16.7169 19.7816 16.2148 19.8252 16.2148C19.8689 16.2148 19.8907 16.7169 19.8907 17.328C19.8907 17.9392 19.8689 18.4412 19.8252 18.4412Z" fill="#126E53"/>
<path d="M22.7296 18.4421C22.7296 18.4421 22.7296 18.3985 22.7296 18.3112C22.7296 18.202 22.7296 18.0711 22.7296 17.8964C22.7296 17.5254 22.7296 17.0234 22.7078 16.3904C22.7078 15.1026 22.686 13.3564 22.686 11.3702L22.7515 11.4356C22.5332 11.4356 22.2713 11.4356 22.0312 11.4356C21.7911 11.4356 21.5292 11.4356 21.3109 11.4356L21.3764 11.3702C21.3764 13.3346 21.3545 15.1026 21.3545 16.3686C21.3545 17.0015 21.3327 17.5036 21.3327 17.8528C21.3327 18.0274 21.3327 18.1584 21.3327 18.2457C21.3327 18.1365 21.3327 18.0056 21.3327 17.8528C21.3327 17.4817 21.3327 16.9797 21.3109 16.3686C21.3109 15.0808 21.2891 13.3346 21.2891 11.3702V11.3047H21.3545C21.5946 11.3047 21.8347 11.3047 22.0748 11.3047C22.3149 11.3047 22.555 11.3047 22.7951 11.3047H22.8606V11.3702C22.8606 13.3346 22.8388 15.1026 22.8388 16.3904C22.8388 17.0234 22.817 17.5254 22.817 17.8964C22.817 18.0711 22.817 18.202 22.817 18.3112C22.7296 18.3985 22.7296 18.4421 22.7296 18.4421Z" fill="#126E53"/>
<path d="M24.1709 18.4412C24.1491 18.4412 24.1055 17.9392 24.1055 17.328C24.1055 16.7169 24.1273 16.2148 24.1709 16.2148C24.1928 16.2148 24.2364 16.7169 24.2364 17.328C24.2146 17.9392 24.1928 18.4412 24.1709 18.4412Z" fill="#126E53"/>
<path d="M25.6124 18.4412C25.5905 18.4412 25.5469 17.9392 25.5469 17.328C25.5469 16.7169 25.5687 16.2148 25.6124 16.2148C25.6342 16.2148 25.6778 16.7169 25.6778 17.328C25.656 17.9392 25.6342 18.4412 25.6124 18.4412Z" fill="#126E53"/>
<path d="M27.0499 18.4412C27.028 18.4412 26.9844 17.9392 26.9844 17.328C26.9844 16.7169 27.0062 16.2148 27.0499 16.2148C27.0717 16.2148 27.1153 16.7169 27.1153 17.328C27.0935 17.9392 27.0717 18.4412 27.0499 18.4412Z" fill="#126E53"/>
<path d="M28.4932 18.4412C28.4714 18.4412 28.4277 17.9392 28.4277 17.328C28.4277 16.7169 28.4496 16.2148 28.4932 16.2148C28.5369 16.2148 28.5587 16.7169 28.5587 17.328C28.5369 17.9392 28.515 18.4412 28.4932 18.4412Z" fill="#126E53"/>
<path d="M29.9327 18.4412C29.9108 18.4412 29.8672 17.9392 29.8672 17.328C29.8672 16.7169 29.889 16.2148 29.9327 16.2148C29.9545 16.2148 29.9981 16.7169 29.9981 17.328C29.9981 17.9392 29.9545 18.4412 29.9327 18.4412Z" fill="#126E53"/>
<path d="M31.3721 18.4412C31.3503 18.4412 31.3066 17.9392 31.3066 17.328C31.3066 16.7169 31.3285 16.2148 31.3721 16.2148C31.3939 16.2148 31.4376 16.7169 31.4376 17.328C31.4376 17.9392 31.3939 18.4412 31.3721 18.4412Z" fill="#126E53"/>
<path d="M32.8135 18.4412C32.7917 18.4412 32.748 17.9392 32.748 17.328C32.748 16.7169 32.7699 16.2148 32.8135 16.2148C32.8354 16.2148 32.879 16.7169 32.879 17.328C32.879 17.9392 32.8354 18.4412 32.8135 18.4412Z" fill="#126E53"/>
<path d="M34.2549 18.4412C34.2331 18.4412 34.1895 17.9392 34.1895 17.328C34.1895 16.7169 34.2113 16.2148 34.2549 16.2148C34.2768 16.2148 34.3204 16.7169 34.3204 17.328C34.3204 17.9392 34.2986 18.4412 34.2549 18.4412Z" fill="#126E53"/>
<path d="M35.6944 18.4412C35.6726 18.4412 35.6289 17.9392 35.6289 17.328C35.6289 16.7169 35.6507 16.2148 35.6944 16.2148C35.7162 16.2148 35.7599 16.7169 35.7599 17.328C35.7599 17.9392 35.738 18.4412 35.6944 18.4412Z" fill="#126E53"/>
<path d="M37.1358 18.4412C37.114 18.4412 37.0703 17.9392 37.0703 17.328C37.0703 16.7169 37.0921 16.2148 37.1358 16.2148C37.1576 16.2148 37.2013 16.7169 37.2013 17.328C37.2013 17.9392 37.1794 18.4412 37.1358 18.4412Z" fill="#126E53"/>
<path d="M38.5772 18.4412C38.5554 18.4412 38.5117 17.9392 38.5117 17.328C38.5117 16.7169 38.5335 16.2148 38.5772 16.2148C38.599 16.2148 38.6427 16.7169 38.6427 17.328C38.6427 17.9392 38.6209 18.4412 38.5772 18.4412Z" fill="#126E53"/>
<path d="M40.0147 18.4412C39.9929 18.4412 39.9492 17.9392 39.9492 17.328C39.9492 16.7169 39.971 16.2148 40.0147 16.2148C40.0365 16.2148 40.0802 16.7169 40.0802 17.328C40.0802 17.9392 40.0584 18.4412 40.0147 18.4412Z" fill="#126E53"/>
<path d="M41.4581 18.4412C41.4362 18.4412 41.3926 17.9392 41.3926 17.328C41.3926 16.7169 41.4144 16.2148 41.4581 16.2148C41.5017 16.2148 41.5235 16.7169 41.5235 17.328C41.5235 17.9392 41.5017 18.4412 41.4581 18.4412Z" fill="#126E53"/>
<path d="M42.8975 18.4412C42.8757 18.4412 42.832 17.9392 42.832 17.328C42.832 16.7169 42.8539 16.2148 42.8975 16.2148C42.9193 16.2148 42.963 16.7169 42.963 17.328C42.963 17.9392 42.9412 18.4412 42.8975 18.4412Z" fill="#126E53"/>
<path d="M44.3604 18.4412C44.3386 18.4412 44.2949 17.9392 44.2949 17.328C44.2949 16.7169 44.3167 16.2148 44.3604 16.2148C44.3822 16.2148 44.4259 16.7169 44.4259 17.328C44.4041 17.9392 44.3822 18.4412 44.3604 18.4412Z" fill="#126E53"/>
<path d="M45.8018 18.4412C45.78 18.4412 45.7363 17.9392 45.7363 17.328C45.7363 16.7169 45.7582 16.2148 45.8018 16.2148C45.8455 16.2148 45.8673 16.7169 45.8673 17.328C45.8455 17.9392 45.8236 18.4412 45.8018 18.4412Z" fill="#126E53"/>
<path d="M47.2413 18.4412C47.2194 18.4412 47.1758 17.9392 47.1758 17.328C47.1758 16.7169 47.1976 16.2148 47.2413 16.2148C47.2631 16.2148 47.3067 16.7169 47.3067 17.328C47.2849 17.9392 47.2631 18.4412 47.2413 18.4412Z" fill="#126E53"/>
<path d="M48.6827 18.4412C48.6608 18.4412 48.6172 17.9392 48.6172 17.328C48.6172 16.7169 48.639 16.2148 48.6827 16.2148C48.7263 16.2148 48.7481 16.7169 48.7481 17.328C48.7263 17.9392 48.7045 18.4412 48.6827 18.4412Z" fill="#126E53"/>
<path d="M50.1241 18.4412C50.1022 18.4412 50.0586 17.9392 50.0586 17.328C50.0586 16.7169 50.0804 16.2148 50.1241 16.2148C50.1459 16.2148 50.1896 16.7169 50.1896 17.328C50.1677 17.9392 50.1459 18.4412 50.1241 18.4412Z" fill="#126E53"/>
<path d="M51.5616 18.4412C51.5397 18.4412 51.4961 17.9392 51.4961 17.328C51.4961 16.7169 51.5179 16.2148 51.5616 16.2148C51.5834 16.2148 51.6271 16.7169 51.6271 17.328C51.6052 17.9392 51.5834 18.4412 51.5616 18.4412Z" fill="#126E53"/>
<path d="M53.003 18.4412C52.9812 18.4412 52.9375 17.9392 52.9375 17.328C52.9375 16.7169 52.9593 16.2148 53.003 16.2148C53.0248 16.2148 53.0685 16.7169 53.0685 17.328C53.0685 17.9392 53.0248 18.4412 53.003 18.4412Z" fill="#126E53"/>
<path d="M54.4424 18.4412C54.4206 18.4412 54.377 17.9392 54.377 17.328C54.377 16.7169 54.3988 16.2148 54.4424 16.2148C54.4861 16.2148 54.5079 16.7169 54.5079 17.328C54.5079 17.9392 54.4643 18.4412 54.4424 18.4412Z" fill="#126E53"/>
<path d="M54.8372 18.2247C54.8372 18.2465 50.3845 18.2901 44.9059 18.2901C39.4273 18.2901 34.9746 18.2683 34.9746 18.2247C34.9746 18.2028 39.4273 18.1592 44.9059 18.1592C50.3845 18.1592 54.8372 18.181 54.8372 18.2247Z" fill="#126E53"/>
<path d="M54.8408 18.2227H21.6855V62.9025H54.8408V18.2227Z" fill="#29B273"/>
<path d="M34.9785 18.2227H17.1895V62.9025H34.9785V18.2227Z" fill="#126E53"/>
<path d="M52.4175 42.4463H46.3496V48.5142H52.4175V42.4463Z" fill="white"/>
<path d="M49.6202 49.1223C49.5983 49.1223 49.5547 47.5508 49.5547 45.63C49.5547 43.6874 49.5765 42.1377 49.6202 42.1377C49.6638 42.1377 49.6857 43.7092 49.6857 45.63C49.6638 47.5508 49.642 49.1223 49.6202 49.1223Z" fill="#29B273"/>
<path d="M53.5511 44.4776C53.5511 44.4994 51.7831 44.5431 49.6222 44.5431C47.4395 44.5431 45.6934 44.5212 45.6934 44.4776C45.6934 44.4339 47.4613 44.4121 49.6222 44.4121C51.7831 44.4339 53.5511 44.4558 53.5511 44.4776Z" fill="#29B273"/>
<path d="M43.773 42.4463H37.7051V48.5142H43.773V42.4463Z" fill="white"/>
<path d="M40.9581 49.1223C40.9362 49.1223 40.8926 47.5508 40.8926 45.63C40.8926 43.6874 40.9144 42.1377 40.9581 42.1377C40.9799 42.1377 41.0235 43.7092 41.0235 45.63C41.0235 47.5508 41.0017 49.1223 40.9581 49.1223Z" fill="#29B273"/>
<path d="M44.9065 44.4776C44.9065 44.4994 43.1386 44.5431 40.9777 44.5431C38.795 44.5431 37.0488 44.5212 37.0488 44.4776C37.0488 44.4339 38.8168 44.4121 40.9777 44.4121C43.1386 44.4339 44.9065 44.4558 44.9065 44.4776Z" fill="#29B273"/>
<path d="M52.4175 32.8672H46.3496V38.9351H52.4175V32.8672Z" fill="white"/>
<path d="M49.6202 39.5452C49.5983 39.5452 49.5547 37.9736 49.5547 36.0529C49.5547 34.1103 49.5765 32.5605 49.6202 32.5605C49.6638 32.5605 49.6857 34.1321 49.6857 36.0529C49.6638 37.9736 49.642 39.5452 49.6202 39.5452Z" fill="#29B273"/>
<path d="M53.5511 34.8946C53.5511 34.9164 51.7831 34.9601 49.6222 34.9601C47.4395 34.9601 45.6934 34.9382 45.6934 34.8946C45.6934 34.8728 47.4613 34.8291 49.6222 34.8291C51.7831 34.8509 53.5511 34.8728 53.5511 34.8946Z" fill="#29B273"/>
<path d="M43.773 32.8672H37.7051V38.9351H43.773V32.8672Z" fill="white"/>
<path d="M40.9581 39.5452C40.9362 39.5452 40.8926 37.9736 40.8926 36.0529C40.8926 34.1103 40.9144 32.5605 40.9581 32.5605C40.9799 32.5605 41.0235 34.1321 41.0235 36.0529C41.0235 37.9736 41.0017 39.5452 40.9581 39.5452Z" fill="#29B273"/>
<path d="M44.9065 34.8946C44.9065 34.9164 43.1386 34.9601 40.9777 34.9601C38.795 34.9601 37.0488 34.9382 37.0488 34.8946C37.0488 34.8728 38.8168 34.8291 40.9777 34.8291C43.1386 34.8509 44.9065 34.8728 44.9065 34.8946Z" fill="#29B273"/>
<path d="M52.4175 23.2656H46.3496V29.3335H52.4175V23.2656Z" fill="white"/>
<path d="M49.6202 29.9426C49.5983 29.9426 49.5547 28.3711 49.5547 26.4503C49.5547 24.5077 49.5765 22.958 49.6202 22.958C49.6638 22.958 49.6857 24.5296 49.6857 26.4503C49.6638 28.3711 49.642 29.9426 49.6202 29.9426Z" fill="#29B273"/>
<path d="M53.5511 25.3126C53.5511 25.3344 51.7831 25.378 49.6222 25.378C47.4395 25.378 45.6934 25.3562 45.6934 25.3126C45.6934 25.2907 47.4613 25.2471 49.6222 25.2471C51.7831 25.2471 53.5511 25.2689 53.5511 25.3126Z" fill="#29B273"/>
<path d="M43.773 23.2656H37.7051V29.3335H43.773V23.2656Z" fill="white"/>
<path d="M40.9581 29.9426C40.9362 29.9426 40.8926 28.3711 40.8926 26.4503C40.8926 24.5077 40.9144 22.958 40.9581 22.958C40.9799 22.958 41.0235 24.5296 41.0235 26.4503C41.0235 28.3711 41.0017 29.9426 40.9581 29.9426Z" fill="#29B273"/>
<path d="M44.9065 25.3126C44.9065 25.3344 43.1386 25.378 40.9777 25.378C38.795 25.378 37.0488 25.3562 37.0488 25.3126C37.0488 25.2907 38.8168 25.2471 40.9777 25.2471C43.1386 25.2471 44.9065 25.2689 44.9065 25.3126Z" fill="#29B273"/>
<g opacity="0.7">
<path d="M28.8882 23.2656H22.8203V29.3335H28.8882V23.2656Z" fill="white"/>
</g>
<path d="M25.8526 29.9426C25.8308 29.9426 25.7871 28.3711 25.7871 26.4503C25.7871 24.5077 25.8089 22.958 25.8526 22.958C25.8744 22.958 25.9181 24.5296 25.9181 26.4503C25.8962 28.3711 25.8744 29.9426 25.8526 29.9426Z" fill="#126E53"/>
<path d="M30.0218 25.3126C30.0218 25.3344 28.2538 25.378 26.0929 25.378C23.9102 25.378 22.1641 25.3562 22.1641 25.3126C22.1641 25.2907 23.932 25.2471 26.0929 25.2471C28.2538 25.2471 30.0218 25.2689 30.0218 25.3126Z" fill="#126E53"/>
<g opacity="0.7">
<path d="M28.8882 32.9775H22.8203V39.0454H28.8882V32.9775Z" fill="white"/>
</g>
<path d="M25.8526 39.636C25.8308 39.636 25.7871 38.0645 25.7871 36.1437C25.7871 34.2011 25.8089 32.6514 25.8526 32.6514C25.8744 32.6514 25.9181 34.2229 25.9181 36.1437C25.8962 38.0863 25.8744 39.636 25.8526 39.636Z" fill="#126E53"/>
<path d="M30.0218 35.0098C30.0218 35.0316 28.2538 35.0753 26.0929 35.0753C23.9102 35.0753 22.1641 35.0535 22.1641 35.0098C22.1641 34.988 23.932 34.9443 26.0929 34.9443C28.2538 34.9443 30.0218 34.9662 30.0218 35.0098Z" fill="#126E53"/>
<g opacity="0.7">
<path d="M28.8882 42.665H22.8203V48.7329H28.8882V42.665Z" fill="white"/>
</g>
<path d="M25.8526 49.3421C25.8308 49.3421 25.7871 47.7705 25.7871 45.8497C25.7871 43.9071 25.8089 42.3574 25.8526 42.3574C25.8744 42.3574 25.9181 43.929 25.9181 45.8497C25.8962 47.7705 25.8744 49.3421 25.8526 49.3421Z" fill="#126E53"/>
<path d="M30.0218 44.6973C30.0218 44.7191 28.2538 44.7628 26.0929 44.7628C23.9102 44.7628 22.1641 44.741 22.1641 44.6973C22.1641 44.6755 23.932 44.6318 26.0929 44.6318C28.2538 44.6318 30.0218 44.6755 30.0218 44.6973Z" fill="#126E53"/>
<path d="M47.8965 62.8827C47.8965 62.8827 47.8965 62.8609 47.8965 62.839C47.8965 62.7954 47.8965 62.7517 47.8965 62.6863C47.8965 62.5335 47.8965 62.337 47.8965 62.0751C47.8965 61.5294 47.8965 60.7437 47.8746 59.7614C47.8746 57.797 47.8528 55.0468 47.8528 51.8819L47.9183 51.9474C46.9143 51.9474 45.8447 51.9474 44.7534 51.9474C43.7057 51.9474 42.6798 51.9474 41.6976 51.9474L41.7631 51.8819C41.7631 55.0686 41.7413 57.8407 41.7413 59.8269C41.7413 60.8091 41.7194 61.5949 41.7194 62.1624C41.7194 62.4243 41.7194 62.6426 41.7194 62.7954C41.7194 62.6426 41.7194 62.4462 41.7194 62.1624C41.7194 61.6167 41.7194 60.8091 41.6976 59.8269C41.6976 57.8407 41.6758 55.0468 41.6758 51.8819V51.8164H41.7413C42.7235 51.8164 43.7493 51.8164 44.797 51.8164C45.8884 51.8164 46.9361 51.8164 47.962 51.8164H48.0274V51.8819C48.0274 55.025 48.0056 57.797 48.0056 59.7614C48.0056 60.7437 47.9838 61.5294 47.9838 62.0751C47.9838 62.337 47.9838 62.5553 47.9838 62.6863C47.9838 62.7517 47.9838 62.7954 47.9838 62.839C47.8965 62.8609 47.8965 62.8827 47.8965 62.8827Z" fill="#126E53"/>
<path d="M44.5801 52.5127H42.4629V57.5766H44.5801V52.5127Z" fill="#F3F4F6"/>
<path d="M44.5805 57.5984H42.4414V52.5127H44.5805V57.5984ZM42.4632 57.5766H44.5805V52.5127H42.4632V57.5766Z" fill="#126E53"/>
<path d="M47.1114 52.5127H44.9941V57.5766H47.1114V52.5127Z" fill="#F3F4F6"/>
<path d="M47.1117 57.5984H44.9727V52.5127H47.1117V57.5984ZM44.9945 57.5766H47.1117V52.5127H44.9945V57.5766Z" fill="#126E53"/>
<path d="M47.155 58.1222C47.155 58.1222 47.1769 58.1004 47.2205 58.1004C47.2642 58.1004 47.3297 58.144 47.3733 58.2095C47.417 58.275 47.4388 58.3841 47.3951 58.4933C47.3515 58.6024 47.2205 58.6897 47.0677 58.6679C46.9149 58.6461 46.8495 58.5151 46.8276 58.406C46.8058 58.275 46.8931 58.1877 46.9586 58.144C47.1114 58.0567 47.2205 58.1222 47.1987 58.1222C47.1987 58.144 47.0896 58.1222 47.0023 58.2095C46.9586 58.2532 46.9149 58.3186 46.9368 58.3841C46.9368 58.4496 47.0023 58.5369 47.0896 58.5587C47.1769 58.5806 47.2642 58.5151 47.286 58.4496C47.3297 58.3841 47.3078 58.2968 47.286 58.2532C47.2642 58.1222 47.155 58.1222 47.155 58.1222Z" fill="#126E53"/>
<path d="M53.6808 51.853C53.6808 51.853 53.6808 51.8312 53.6808 51.7657C53.6808 51.7002 53.6808 51.6347 53.6808 51.5474C53.6808 51.351 53.6808 51.0672 53.6808 50.7398L53.7027 50.7617C52.8514 50.7617 51.5855 50.7617 50.1667 50.7617C50.1667 50.7617 50.1449 50.7835 50.1885 50.7398V50.7617V50.8053V50.8708V51.0018C50.1885 51.0891 50.1885 51.1764 50.1885 51.2855C50.1885 51.4601 50.1885 51.6347 50.1885 51.8094L50.1667 51.7875C51.1707 51.7875 52.0438 51.7875 52.6986 51.7875C53.0042 51.7875 53.2443 51.7875 53.4408 51.7875C53.5281 51.7875 53.5935 51.7875 53.6372 51.7875C53.6372 51.853 53.6808 51.853 53.6808 51.853C53.6808 51.853 53.659 51.853 53.6154 51.853C53.5499 51.853 53.4844 51.853 53.4189 51.853C53.2225 51.853 52.9824 51.853 52.6768 51.853C52.022 51.853 51.1489 51.853 50.1449 51.853H50.123V51.8312C50.123 51.6566 50.123 51.4819 50.123 51.3073C50.123 51.22 50.123 51.1327 50.123 51.0236V50.8926V50.8271V50.7835V50.7617C50.1667 50.718 50.1449 50.7398 50.1449 50.7398C51.5636 50.7398 52.8296 50.7398 53.6808 50.7398H53.7027V50.7617C53.7027 51.0891 53.7027 51.351 53.7027 51.5693C53.7027 51.6566 53.7027 51.722 53.7027 51.7875C53.6808 51.8312 53.6808 51.853 53.6808 51.853Z" fill="#126E53"/>
<path d="M39.9094 49.6059C39.9094 49.6059 39.9094 49.5841 39.9094 49.5186C39.9094 49.4531 39.9094 49.3877 39.9094 49.3004C39.9094 49.1039 39.9094 48.8202 39.9094 48.4928L39.9312 48.5146C39.0799 48.5146 37.814 48.5146 36.3952 48.5146C36.3952 48.5146 36.3734 48.5364 36.417 48.4928V48.5146V48.5582V48.6237V48.7547C36.417 48.842 36.417 48.9293 36.417 49.0384C36.417 49.2131 36.417 49.3877 36.417 49.5623L36.3734 49.5841C37.3774 49.5841 38.2505 49.5841 38.9053 49.5841C39.2109 49.5841 39.451 49.5841 39.6474 49.5841C39.7347 49.5841 39.8002 49.5841 39.8439 49.5841C39.8875 49.6059 39.9094 49.6059 39.9094 49.6059C39.9094 49.6059 39.8875 49.6059 39.8439 49.6059C39.7784 49.6059 39.7129 49.6059 39.6474 49.6059C39.451 49.6059 39.2109 49.6059 38.9053 49.6059C38.2505 49.6059 37.3774 49.6059 36.3734 49.6059H36.3516V49.5841C36.3516 49.4095 36.3516 49.2349 36.3516 49.0603C36.3516 48.973 36.3516 48.8856 36.3516 48.7765V48.6455V48.5801V48.5364V48.5146C36.3952 48.4709 36.3734 48.4928 36.3734 48.4928C37.7921 48.4928 39.0581 48.4928 39.9094 48.4928H39.9312V48.5146C39.9312 48.842 39.9312 49.1039 39.9312 49.3222C39.9312 49.4095 39.9312 49.475 39.9312 49.5405C39.9094 49.5841 39.9094 49.6059 39.9094 49.6059Z" fill="#126E53"/>
<path d="M37.7062 40.7456C37.7062 40.7456 37.7062 40.7238 37.7062 40.6583C37.7062 40.5928 37.7062 40.5273 37.7062 40.44C37.7062 40.2436 37.7062 39.9598 37.7062 39.6324L37.7281 39.6542C36.8768 39.6542 35.6108 39.6542 34.1921 39.6542C34.1921 39.6542 34.1703 39.6761 34.2139 39.6324V39.6542V39.6979V39.7634V39.8943C34.2139 39.9816 34.2139 40.0689 34.2139 40.1781C34.2139 40.3527 34.2139 40.5273 34.2139 40.7019L34.1921 40.6801C35.1961 40.6801 36.0692 40.6801 36.724 40.6801C37.0296 40.6801 37.2697 40.6801 37.4661 40.6801C37.5534 40.6801 37.6189 40.6801 37.6626 40.6801C37.6844 40.7456 37.7062 40.7456 37.7062 40.7456C37.7062 40.7456 37.6844 40.7456 37.6408 40.7456C37.5753 40.7456 37.5098 40.7456 37.4443 40.7456C37.2479 40.7456 37.0078 40.7456 36.7022 40.7456C36.0474 40.7456 35.1743 40.7456 34.1703 40.7456H34.1484V40.7238C34.1484 40.5491 34.1484 40.3745 34.1484 40.1999C34.1484 40.1126 34.1484 40.0253 34.1484 39.9162V39.7852V39.7197V39.6761V39.6542C34.1921 39.6106 34.1703 39.6324 34.1703 39.6324C35.589 39.6324 36.855 39.6324 37.7062 39.6324H37.7281V39.6542C37.7281 39.9816 37.7281 40.2436 37.7281 40.4618C37.7281 40.5491 37.7281 40.6146 37.7281 40.6801C37.7062 40.7238 37.7062 40.7456 37.7062 40.7456Z" fill="#126E53"/>
<path d="M50.4289 31.2085C50.4289 31.2085 50.4289 31.1867 50.4289 31.1212C50.4289 31.0557 50.4289 30.9902 50.4289 30.9029C50.4289 30.7065 50.4289 30.4227 50.4289 30.0953L50.4507 30.1171C49.5995 30.1171 48.3335 30.1171 46.9147 30.1171C46.9147 30.1171 46.8929 30.139 46.9366 30.0953V30.1171V30.1608V30.2263V30.3572C46.9366 30.4445 46.9366 30.5318 46.9366 30.641C46.9366 30.8156 46.9366 30.9902 46.9366 31.1648L46.9147 31.143C47.9188 31.143 48.7919 31.143 49.4467 31.143C49.7523 31.143 49.9924 31.143 50.1888 31.143C50.2761 31.143 50.3416 31.143 50.3852 31.143C50.3852 31.1867 50.4289 31.2085 50.4289 31.2085C50.4289 31.2085 50.4071 31.2085 50.3634 31.2085C50.2979 31.2085 50.2325 31.2085 50.167 31.2085C49.9705 31.2085 49.7304 31.2085 49.4249 31.2085C48.77 31.2085 47.897 31.2085 46.8929 31.2085H46.8711V31.1866C46.8711 31.012 46.8711 30.8374 46.8711 30.6628C46.8711 30.5755 46.8711 30.4882 46.8711 30.3791V30.2481V30.1826V30.139V30.1171C46.9147 30.0735 46.8929 30.0953 46.8929 30.0953C48.3117 30.0953 49.5776 30.0953 50.4289 30.0953H50.4507V30.1171C50.4507 30.4445 50.4507 30.7065 50.4507 30.9247C50.4507 31.012 50.4507 31.0775 50.4507 31.143C50.4289 31.1648 50.4289 31.2085 50.4289 31.2085Z" fill="#126E53"/>
<path d="M40.3469 21.0132C40.3469 21.0132 40.3469 20.9913 40.3469 20.9259C40.3469 20.8604 40.3469 20.7949 40.3469 20.7076C40.3469 20.5111 40.3469 20.2274 40.3469 19.9L40.3687 19.9218C39.5174 19.9218 38.2515 19.9218 36.8327 19.9218C36.8327 19.9218 36.8109 19.9436 36.8545 19.9V19.9218V19.9655V20.0309V20.1619C36.8545 20.2492 36.8545 20.3365 36.8545 20.4457C36.8545 20.6203 36.8545 20.7949 36.8545 20.9695L36.8109 20.9913C37.8149 20.9913 38.688 20.9913 39.3428 20.9913C39.6484 20.9913 39.8885 20.9913 40.0849 20.9913C40.1722 20.9913 40.2377 20.9913 40.2814 20.9913C40.325 21.0132 40.3469 21.0132 40.3469 21.0132C40.3469 21.0132 40.325 21.0132 40.2814 21.0132C40.2159 21.0132 40.1504 21.0132 40.0849 21.0132C39.8885 21.0132 39.6484 21.0132 39.3428 21.0132C38.688 21.0132 37.8149 21.0132 36.8109 21.0132H36.7891V20.9913C36.7891 20.8167 36.7891 20.6421 36.7891 20.4675C36.7891 20.3802 36.7891 20.2929 36.7891 20.1837V20.0528V19.9873V19.9436V19.9218C36.8327 19.8782 36.8109 19.9 36.8109 19.9C38.2296 19.9 39.4956 19.9 40.3469 19.9H40.3687V19.9218C40.3687 20.2492 40.3687 20.5111 40.3687 20.7294C40.3687 20.8167 40.3687 20.8822 40.3687 20.9477C40.3469 20.9913 40.3469 21.0132 40.3469 21.0132Z" fill="#126E53"/>
<path d="M52.5695 32.2534C52.5695 32.2534 52.5695 32.2316 52.5695 32.1661C52.5695 32.1006 52.5695 32.0351 52.5695 31.9478C52.5695 31.7514 52.5695 31.4676 52.5695 31.1402L52.5913 31.162C51.7401 31.162 50.4741 31.162 49.0554 31.162C49.0554 31.162 49.0335 31.1839 49.0772 31.1402V31.162V31.2057V31.2712V31.4021C49.0772 31.4895 49.0772 31.5768 49.0772 31.6859C49.0772 31.8605 49.0772 32.0351 49.0772 32.2097L49.0554 32.1879C50.0594 32.1879 50.9325 32.1879 51.5873 32.1879C51.8929 32.1879 52.133 32.1879 52.3294 32.1879C52.4167 32.1879 52.4822 32.1879 52.5259 32.1879C52.5477 32.2534 52.5695 32.2534 52.5695 32.2534C52.5695 32.2534 52.5477 32.2534 52.504 32.2534C52.4386 32.2534 52.3731 32.2534 52.3076 32.2534C52.1112 32.2534 51.8711 32.2534 51.5655 32.2534C50.9107 32.2534 50.0376 32.2534 49.0335 32.2534H49.0117V32.2316C49.0117 32.057 49.0117 31.8823 49.0117 31.7077C49.0117 31.6204 49.0117 31.5331 49.0117 31.424V31.293V31.2275V31.1839V31.162C49.0554 31.1184 49.0335 31.1402 49.0335 31.1402C50.4523 31.1402 51.7183 31.1402 52.5695 31.1402H52.5913V31.162C52.5913 31.4895 52.5913 31.7514 52.5913 31.9696C52.5913 32.057 52.5913 32.1224 52.5913 32.1879C52.5695 32.2316 52.5695 32.2534 52.5695 32.2534Z" fill="#126E53"/>
<path d="M36.1789 41.8139C36.1789 41.8139 36.1789 41.7921 36.1789 41.7266C36.1789 41.6612 36.1789 41.5957 36.1789 41.5084C36.1789 41.3119 36.1789 41.0282 36.1789 40.7008L36.2007 40.7226C35.3495 40.7226 34.0835 40.7226 32.6647 40.7226C32.6647 40.7226 32.6429 40.7444 32.6866 40.7008V40.7226V40.7663V40.8317V40.9627C32.6866 41.05 32.6866 41.1373 32.6866 41.2464C32.6866 41.4211 32.6866 41.5957 32.6866 41.7703L32.6647 41.7485C33.6688 41.7485 34.5419 41.7485 35.1967 41.7485C35.5023 41.7485 35.7424 41.7485 35.9388 41.7485C36.0261 41.7485 36.0916 41.7485 36.1352 41.7485C36.1571 41.8139 36.1789 41.8139 36.1789 41.8139C36.1789 41.8139 36.1571 41.8139 36.1134 41.8139C36.0479 41.8139 35.9825 41.8139 35.917 41.8139C35.7205 41.8139 35.4804 41.8139 35.1749 41.8139C34.52 41.8139 33.647 41.8139 32.6429 41.8139H32.6211V41.7921C32.6211 41.6175 32.6211 41.4429 32.6211 41.2683C32.6211 41.181 32.6211 41.0937 32.6211 40.9845V40.8536V40.7881V40.7444V40.7226C32.6647 40.6789 32.6429 40.7008 32.6429 40.7008C34.0617 40.7008 35.3276 40.7008 36.1789 40.7008H36.2007V40.7226C36.2007 41.05 36.2007 41.3119 36.2007 41.5302C36.2007 41.6175 36.2007 41.683 36.2007 41.7485C36.1789 41.7921 36.1789 41.8139 36.1789 41.8139Z" fill="#126E53"/>
<path d="M37.7062 22.104C37.7062 22.104 37.7062 22.0822 37.7062 22.0167C37.7062 21.9512 37.7062 21.8857 37.7062 21.7984C37.7062 21.602 37.7062 21.3182 37.7062 20.9908L37.7281 21.0126C36.8768 21.0126 35.6108 21.0126 34.1921 21.0126C34.1921 21.0126 34.1703 21.0345 34.2139 20.9908V21.0126V21.0563V21.1218V21.2527C34.2139 21.34 34.2139 21.4273 34.2139 21.5365C34.2139 21.7111 34.2139 21.8857 34.2139 22.0603L34.1703 22.0822C35.1743 22.0822 36.0474 22.0822 36.7022 22.0822C37.0078 22.0822 37.2479 22.0822 37.4443 22.0822C37.5316 22.0822 37.5971 22.0822 37.6408 22.0822C37.6844 22.104 37.7062 22.104 37.7062 22.104C37.7062 22.104 37.6844 22.104 37.6408 22.104C37.5753 22.104 37.5098 22.104 37.4443 22.104C37.2479 22.104 37.0078 22.104 36.7022 22.104C36.0474 22.104 35.1743 22.104 34.1703 22.104H34.1484V22.0822C34.1484 21.9075 34.1484 21.7329 34.1484 21.5583C34.1484 21.471 34.1484 21.3837 34.1484 21.2746V21.1436V21.0781V21.0345V21.0126C34.1921 20.969 34.1703 20.9908 34.1703 20.9908C35.589 20.9908 36.855 20.9908 37.7062 20.9908H37.7281V21.0126C37.7281 21.34 37.7281 21.602 37.7281 21.8202C37.7281 21.9075 37.7281 21.973 37.7281 22.0385C37.7062 22.0822 37.7062 22.104 37.7062 22.104Z" fill="#126E53"/>
<path d="M54.8156 52.9516C54.8156 52.9516 54.8156 52.9298 54.8156 52.8643C54.8156 52.7989 54.8156 52.7334 54.8156 52.6461C54.8156 52.4496 54.8156 52.1659 54.8156 51.8385L54.8374 51.8603C53.9862 51.8603 52.7202 51.8603 51.3015 51.8603C51.3015 51.8603 51.2796 51.8821 51.3233 51.8385V51.8603V51.9039V51.9694V52.1004C51.3233 52.1877 51.3233 52.275 51.3233 52.3841C51.3233 52.5588 51.3233 52.7334 51.3233 52.908L51.3015 52.8862C52.3055 52.8862 53.1786 52.8862 53.8334 52.8862C54.139 52.8862 54.3791 52.8862 54.5755 52.8862C54.6628 52.8862 54.7283 52.8862 54.772 52.8862C54.7938 52.9516 54.8156 52.9516 54.8156 52.9516C54.8156 52.9516 54.7938 52.9516 54.7501 52.9516C54.6847 52.9516 54.6192 52.9516 54.5537 52.9516C54.3572 52.9516 54.1171 52.9516 53.8116 52.9516C53.1568 52.9516 52.2837 52.9516 51.2796 52.9516H51.2578V52.9298C51.2578 52.7552 51.2578 52.5806 51.2578 52.406C51.2578 52.3187 51.2578 52.2314 51.2578 52.1222V51.9913V51.9258V51.8821V51.8603C51.3015 51.8166 51.2796 51.8385 51.2796 51.8385C52.6984 51.8385 53.9644 51.8385 54.8156 51.8385H54.8374V51.8603C54.8374 52.1877 54.8374 52.4496 54.8374 52.6679C54.8374 52.7552 54.8374 52.8207 54.8374 52.8862C54.8156 52.9298 54.8156 52.9516 54.8156 52.9516Z" fill="#126E53"/>
<path d="M34.2126 11.6736C34.2126 11.6736 34.1689 11.6955 34.1035 11.7609C34.038 11.8046 33.9289 11.8919 33.7761 11.9792C33.4923 12.1757 33.0339 12.4158 32.4664 12.6777C31.3314 13.1797 29.6508 13.6817 27.73 13.6599C25.8092 13.6381 24.1285 13.0924 23.0153 12.5467C22.4478 12.2848 22.0331 12.0229 21.7276 11.8264C21.5748 11.7391 21.4656 11.6518 21.4002 11.5863C21.3347 11.5427 21.291 11.499 21.291 11.499C21.291 11.499 21.3347 11.5209 21.422 11.5645C21.5093 11.6082 21.6184 11.6955 21.7494 11.7828C22.0331 11.9574 22.4697 12.2193 23.0372 12.4812C24.1504 13.0051 25.8092 13.5289 27.7082 13.5508C29.6071 13.5726 31.2878 13.1142 32.401 12.6122C32.9685 12.3721 33.405 12.132 33.7106 11.9574C33.8634 11.8701 33.9725 11.8046 34.0598 11.7609C34.1689 11.6955 34.2126 11.6736 34.2126 11.6736Z" fill="#126E53"/>
<path d="M33.7571 11.3262C33.7571 11.3262 33.7353 11.348 33.6698 11.3917C33.5825 11.4353 33.4952 11.5008 33.3861 11.5663C33.3206 11.6099 33.2551 11.6536 33.1678 11.6972C33.0805 11.7409 32.9932 11.7845 32.9059 11.8282C32.7094 11.9155 32.513 12.0246 32.251 12.1338C32.1201 12.1774 31.9891 12.2429 31.8582 12.2866C31.7272 12.3302 31.5744 12.3739 31.4216 12.4393C31.1379 12.5485 30.8105 12.614 30.4612 12.7013C29.7846 12.8541 28.9988 12.9414 28.1912 12.9632C27.3836 12.9632 26.6197 12.8759 25.9212 12.7449C25.572 12.6576 25.2446 12.5921 24.9608 12.5048C24.808 12.4612 24.6771 12.4175 24.5243 12.3739C24.3933 12.3302 24.2624 12.2647 24.1314 12.2211C23.8913 12.1338 23.673 12.0246 23.4766 11.9373C23.3893 11.8937 23.302 11.85 23.2147 11.8064C23.1274 11.7627 23.0619 11.7191 22.9964 11.6754C22.8873 11.6099 22.7781 11.5444 22.7127 11.5008C22.6472 11.4571 22.6035 11.4353 22.6035 11.4353C22.6035 11.4353 22.6472 11.4571 22.7127 11.479C22.8 11.5226 22.8873 11.5663 23.0182 11.6318C23.0837 11.6754 23.1492 11.6972 23.2365 11.7409C23.3238 11.7845 23.4111 11.8064 23.4984 11.85C23.6949 11.9373 23.9131 12.0465 24.1532 12.1119C24.2842 12.1556 24.4152 12.1993 24.5461 12.2429C24.6771 12.2866 24.8299 12.3302 24.9827 12.3739C25.2664 12.4612 25.5938 12.5267 25.943 12.614C26.6197 12.7449 27.3836 12.8322 28.1912 12.8322C28.9988 12.8322 29.7628 12.7231 30.4394 12.5921C30.7668 12.5048 31.0942 12.4393 31.3998 12.352C31.5526 12.3084 31.6835 12.2647 31.8363 12.2211C31.9673 12.1774 32.0983 12.1119 32.2292 12.0683C32.4693 11.981 32.6876 11.8718 32.884 11.7845C32.9713 11.7409 33.0586 11.6972 33.146 11.6536C33.2333 11.6099 33.2987 11.5663 33.3642 11.5444C33.4952 11.479 33.5825 11.4353 33.6698 11.3917C33.7135 11.348 33.7571 11.3262 33.7571 11.3262Z" fill="#126E53"/>
<path d="M27.7529 13.5284C27.4474 13.7466 27.3601 14.0086 27.3382 14.3796C27.3164 14.5761 27.3382 14.8162 27.2509 14.9908C27.1418 15.1872 26.9235 15.2745 26.7052 15.2745C26.487 15.2745 26.2687 15.2091 26.0723 15.1436C26.3124 14.8816 26.4652 14.5542 26.5306 14.205C26.5525 14.0522 26.5743 13.9213 26.6179 13.7685C26.6616 13.6157 26.7707 13.5065 26.9017 13.4629L27.7529 13.5284Z" fill="#E9571F"/>
<path d="M29.3236 13.3982C29.1272 13.4637 29.018 13.6602 28.9744 13.8566C28.9307 14.0531 28.9525 14.2495 28.9744 14.4678C28.9744 14.6642 28.9744 14.8825 28.8652 15.0571C29.3236 15.1444 29.8256 15.0353 30.2185 14.7952C30.0657 14.2713 30.1094 13.7475 30.3495 13.2673C30.3495 13.2673 30.3713 13.2455 30.3058 13.2236C30.2185 13.2236 29.3236 13.3982 29.3236 13.3982Z" fill="#E9571F"/>
</svg>
