<svg width="52" height="40" viewBox="0 0 52 40" fill="none" xmlns="http://www.w3.org/2000/svg">
<g clip-path="url(#clip0_23127_8779)">
<path d="M11.9945 19.2625C11.8335 19.1316 11.6546 19.0239 11.4633 18.9427C11.6008 18.8612 11.728 18.7639 11.8425 18.6526C12.055 18.4492 12.2323 18.2121 12.3672 17.9511C12.5011 17.69 12.5997 17.4126 12.6607 17.1258C12.7204 16.8452 12.7541 16.5597 12.7613 16.2729C12.7702 15.7008 12.6653 15.1326 12.4529 14.601C12.27 14.1654 11.9911 13.7763 11.6368 13.4623C11.2994 13.1678 10.9019 12.9496 10.4717 12.8226C10.0442 12.6959 9.60042 12.632 9.1544 12.6328H0V26.549H8.76244C9.54221 26.5772 10.3191 26.4398 11.0414 26.146C11.5759 25.915 12.049 25.5631 12.4229 25.1182C12.7514 24.7163 12.9836 24.2452 13.1019 23.7406C13.2117 23.2677 13.2705 22.7844 13.2775 22.2991C13.2747 21.9159 13.2265 21.5344 13.134 21.1625C13.0428 20.792 12.8986 20.4365 12.7056 20.107C12.5195 19.7866 12.2789 19.5009 11.9945 19.2625ZM8.20555 23.5828H3.6412V20.7531H7.93995C8.46257 20.7531 8.84811 20.8725 9.088 21.1049C9.21272 21.2478 9.30763 21.414 9.3672 21.5937C9.42677 21.7735 9.44981 21.9632 9.43499 22.152C9.44551 22.5155 9.34384 22.8734 9.14369 23.1776C8.95949 23.457 8.65106 23.5828 8.20555 23.5828ZM7.92496 18.0151H3.6412V15.4881H7.55227C7.80821 15.4806 8.06382 15.5115 8.3105 15.5798C8.46616 15.6264 8.60855 15.709 8.72603 15.8208C8.82432 15.9183 8.89395 16.0407 8.92736 16.1748C8.96907 16.3525 8.99204 16.534 8.9959 16.7164C8.9959 17.1749 8.89095 17.5097 8.70032 17.7144C8.60059 17.8173 8.47963 17.8975 8.34577 17.9494C8.21192 18.0013 8.06835 18.0237 7.92496 18.0151Z" fill="#1F386A"/>
<path d="M21.9517 23.1291L21.9088 23.2165C21.5083 24.0503 20.7565 24.4554 19.6084 24.4554C19.1956 24.466 18.7853 24.389 18.4047 24.2294C18.0995 24.0964 17.8226 23.9068 17.5886 23.6707C17.3865 23.4628 17.2252 23.219 17.1131 22.9521C17.0332 22.7652 16.9854 22.5662 16.9718 22.3635H25.6143L25.6014 21.9029C25.6014 19.9368 25.1131 18.3866 24.1235 17.2926C23.134 16.1987 21.6068 15.6293 19.6063 15.6293C18.7716 15.6211 17.9398 15.7281 17.1346 15.9471C16.4267 16.1406 15.7692 16.4839 15.2069 16.9536C14.6562 17.4303 14.228 18.0314 13.9582 18.7064C13.6519 19.5167 13.5064 20.3785 13.5298 21.244C13.5113 22.118 13.664 22.9872 13.9796 23.8029C14.258 24.4924 14.6988 25.1053 15.2647 25.5899C15.8361 26.0689 16.5046 26.4195 17.2245 26.6177C18.0353 26.8385 18.8729 26.9462 19.7134 26.9376C20.953 26.9692 22.1805 26.6882 23.2818 26.1209C24.282 25.575 25.0145 24.6687 25.4558 23.4255L25.5586 23.1376L21.9517 23.1291ZM19.6191 18.1008C20.0464 18.0863 20.4712 18.1718 20.8593 18.3503C21.1516 18.4949 21.414 18.6932 21.6325 18.9346C21.809 19.1302 21.9464 19.3574 22.0373 19.6042C22.083 19.7351 22.1195 19.8691 22.1466 20.0051H17.0061C17.021 19.9496 17.0403 19.8793 17.066 19.7918C17.1528 19.5343 17.2855 19.2944 17.458 19.0839C17.6861 18.8073 17.9644 18.5758 18.2783 18.4015C18.6906 18.1847 19.1533 18.081 19.6191 18.1008Z" fill="#1F386A"/>
<path d="M39.2533 21.1633C39.1631 20.7925 39.0188 20.4369 38.825 20.1078C38.6363 19.783 38.3911 19.4942 38.101 19.2548C37.9407 19.1239 37.7626 19.0162 37.572 18.9349C37.7083 18.8529 37.8348 18.7556 37.9489 18.6449C38.1621 18.442 38.3395 18.2048 38.4737 17.9434C38.6069 17.685 38.7055 17.4104 38.7671 17.1266C38.8287 16.8462 38.8631 16.5606 38.8699 16.2737C38.8753 15.7011 38.7676 15.1331 38.5529 14.6019C38.3779 14.1767 38.1088 13.7962 37.7659 13.4887C37.4229 13.1812 37.0147 12.9545 36.5717 12.8255C36.1443 12.6986 35.7005 12.6346 35.2545 12.6358H26.1172V26.5498H34.8796C35.6594 26.578 36.4363 26.4406 37.1586 26.1468C37.695 25.9169 38.1697 25.5649 38.5444 25.119C38.8728 24.7171 39.105 24.246 39.2234 23.7414C39.3343 23.2687 39.3932 22.7853 39.399 22.2999C39.3962 21.9166 39.3473 21.535 39.2533 21.1633ZM34.327 23.5836H29.7712V20.7539H34.055C34.5776 20.7539 34.9632 20.8733 35.203 21.1057C35.3283 21.2483 35.4235 21.4144 35.4831 21.5942C35.5427 21.7741 35.5655 21.964 35.55 22.1528C35.5613 22.5161 35.4604 22.8741 35.2609 23.1785C35.0745 23.4578 34.7682 23.5836 34.3206 23.5836H34.327ZM34.0486 18.0159H29.7648V15.4889H33.6737C33.9297 15.4812 34.1853 15.5122 34.432 15.5806C34.592 15.6257 34.7389 15.7083 34.8603 15.8216C34.958 15.9192 35.0269 16.0417 35.0595 16.1756C35.1021 16.3532 35.1258 16.5347 35.1302 16.7172C35.1302 17.1757 35.0274 17.5105 34.8368 17.7152C34.7346 17.8203 34.6105 17.9018 34.4731 17.9537C34.3358 18.0057 34.1887 18.0269 34.0421 18.0159H34.0486Z" fill="#1F386A"/>
<path d="M50.9964 19.3051C50.9981 18.8285 50.9259 18.3545 50.7822 17.8999C50.6236 17.4262 50.3305 17.0084 49.9383 16.6972C49.4476 16.3241 48.8846 16.0562 48.2848 15.9103C47.4183 15.7024 46.5284 15.6078 45.6374 15.6289C45.029 15.6285 44.4211 15.6633 43.8168 15.7333C43.2333 15.7945 42.6646 15.9546 42.1354 16.2067C41.6182 16.4603 41.1723 16.8377 40.8374 17.3049C40.4496 17.8831 40.22 18.5519 40.1713 19.2454L40.1435 19.4971H43.3777L43.4098 19.384C43.4799 19.1052 43.5949 18.8394 43.7504 18.5972C43.8627 18.4285 44.0131 18.2883 44.1895 18.1878C44.3709 18.0943 44.5687 18.0364 44.7721 18.0172C45.0055 17.9937 45.2776 17.9809 45.5817 17.9809C46.597 17.9809 47.0575 18.128 47.2652 18.2517C47.3916 18.3213 47.4952 18.4257 47.5636 18.5524C47.632 18.6791 47.6622 18.8227 47.6508 18.9661C47.6508 19.3137 47.5951 19.5397 47.4601 19.6421C47.1972 19.7838 46.9025 19.8572 46.6034 19.8553L43.4805 20.1176C43.021 20.1599 42.5645 20.2312 42.114 20.3308C41.6705 20.4207 41.2478 20.5921 40.8674 20.8362C40.4918 21.0858 40.1818 21.4214 39.9636 21.815C39.7109 22.3085 39.5914 22.8589 39.6166 23.4122C39.6031 23.9632 39.7105 24.5104 39.9314 25.0158C40.1341 25.4558 40.4423 25.8396 40.8289 26.1332C41.2302 26.4289 41.6879 26.64 42.174 26.7537C42.7199 26.8824 43.2794 26.9447 43.8404 26.9392C44.2048 26.9368 44.5687 26.9141 44.9306 26.871C45.3313 26.8259 45.727 26.7446 46.1129 26.6279C46.5021 26.5127 46.8776 26.3561 47.2331 26.1609C47.4573 26.0409 47.6683 25.8979 47.8628 25.7344C47.8628 25.7706 47.8757 25.8069 47.8842 25.8432C47.9249 26.0287 47.9678 26.2099 48.0128 26.3891L48.0577 26.5703H51.4333L51.3369 26.3336C51.23 26.0628 51.1504 25.7821 51.0992 25.4956C51.035 25.1224 51.0077 24.7439 51.0178 24.3654L50.9964 19.3051ZM47.7643 22.2095C47.7752 22.57 47.6879 22.9266 47.5116 23.2416C47.3388 23.5355 47.1034 23.7881 46.8219 23.9815C46.5274 24.1836 46.1998 24.333 45.8537 24.423C45.5046 24.5176 45.1446 24.5664 44.7828 24.568C44.3531 24.5904 43.9272 24.477 43.5662 24.2438C43.4294 24.146 43.3201 24.0148 43.2488 23.8628C43.1775 23.7109 43.1467 23.5432 43.1592 23.3759C43.1592 22.9729 43.2556 22.7 43.4762 22.54C43.8082 22.3386 44.1866 22.2256 44.575 22.2116L46.2885 22.041C46.5777 22.0155 46.8776 21.9728 47.1796 21.9152C47.3801 21.8764 47.576 21.8171 47.7643 21.7382V22.2095Z" fill="#1F386A"/>
<path d="M26.3668 3.17141C34.0839 3.16081 41.5932 5.66108 47.7513 10.2916C45.1966 7.08254 41.9463 4.49002 38.2434 2.70786C34.5404 0.925691 30.4808 0 26.3678 0C22.2549 0 18.1953 0.925691 14.4923 2.70786C10.7894 4.49002 7.53908 7.08254 4.98438 10.2916C11.1415 5.66082 18.6502 3.1605 26.3668 3.17141Z" fill="url(#paint0_linear_23127_8779)"/>
<path d="M11.008 34.505C10.7446 35.303 10.2302 35.9953 9.54081 36.4796C8.8714 36.9585 8.06905 37.2186 7.24471 37.2238C6.72217 37.232 6.20342 37.1343 5.71997 36.9367C5.23652 36.7391 4.79846 36.4458 4.43242 36.0744C4.04114 35.7 3.72934 35.2512 3.5155 34.7546C3.30166 34.258 3.19014 33.7237 3.18755 33.1834C3.18495 32.6431 3.29133 32.1078 3.50038 31.6091C3.70944 31.1105 4.01691 30.6588 4.40457 30.2806C4.78862 29.8803 5.25612 29.5685 5.77419 29.3674C6.29226 29.1662 6.8483 29.0805 7.40321 29.1163C8.43208 29.1816 9.39586 29.64 10.0934 30.3958C10.4393 30.735 10.7146 31.1389 10.9035 31.5842C11.0924 32.0295 11.1912 32.5076 11.1943 32.9909V33.5454H4.24179C4.30652 34.2899 4.66271 34.9792 5.23348 35.4645C5.79859 35.9573 6.53024 36.2187 7.28112 36.196C8.50413 36.1832 9.37374 35.6138 9.90278 34.505H11.008ZM10.1791 32.5858C10.051 31.9042 9.69098 31.2875 9.15955 30.8393C8.62362 30.3907 7.94487 30.1466 7.24471 30.1506C6.53498 30.1324 5.84222 30.3681 5.29207 30.8149C4.74193 31.2617 4.37083 31.8899 4.24607 32.5858H10.1791Z" fill="#FFCC00"/>
<path d="M18.8678 37.0343H17.8225V32.5306C17.8241 32.2171 17.761 31.9066 17.6372 31.6183C17.5134 31.33 17.3316 31.0701 17.1029 30.8545C16.89 30.63 16.633 30.4516 16.3477 30.3305C16.0624 30.2094 15.7551 30.1482 15.445 30.1508C15.1308 30.1481 14.8193 30.2091 14.5295 30.3301C14.2397 30.451 13.9777 30.6295 13.7594 30.8545C13.5346 31.0717 13.357 31.3325 13.2377 31.6209C13.1183 31.9092 13.0597 32.2188 13.0654 32.5306V37.0343H12.0073V32.6394C11.9939 32.1803 12.0736 31.7233 12.2418 31.2957C12.41 30.8681 12.6632 30.4787 12.9862 30.1508C13.3037 29.8231 13.6864 29.5647 14.1097 29.3921C14.533 29.2196 14.9878 29.1366 15.445 29.1486C15.9002 29.138 16.3526 29.2217 16.7737 29.3942C17.1947 29.5667 17.5752 29.8244 17.8911 30.1508C18.2137 30.4789 18.4664 30.8684 18.6343 31.296C18.8021 31.7236 18.8815 32.1805 18.8678 32.6394V37.0343Z" fill="#FFCC00"/>
<path d="M27.4012 34.5051C27.1385 35.3035 26.624 35.9961 25.9341 36.4798C25.2648 36.9591 24.4624 37.2192 23.638 37.224C23.1158 37.2319 22.5974 37.1341 22.1144 36.9365C21.6313 36.7389 21.1936 36.4457 20.8278 36.0746C20.4357 35.7006 20.1232 35.252 19.9089 34.7553C19.6945 34.2587 19.5827 33.7241 19.5801 33.1836C19.5775 32.643 19.6842 32.1075 19.8937 31.6088C20.1033 31.1101 20.4115 30.6585 20.8 30.2808C21.1837 29.8801 21.6512 29.5681 22.1693 29.3669C22.6875 29.1658 23.2436 29.0803 23.7986 29.1165C24.8268 29.1819 25.7899 29.6403 26.4867 30.396C26.8325 30.7352 27.1078 31.1391 27.2967 31.5844C27.4856 32.0297 27.5845 32.5077 27.5876 32.9911V33.5455H20.6372C20.701 34.2903 21.0574 34.98 21.6289 35.4647C22.1931 35.9632 22.9267 36.2292 23.6808 36.2089C24.9017 36.1962 25.7713 35.6268 26.3025 34.5179L27.4012 34.5051ZM26.5723 32.586C26.445 31.9046 26.0857 31.2879 25.5549 30.8395C25.1517 30.4965 24.6647 30.2654 24.1432 30.1696C23.6216 30.0738 23.0839 30.1166 22.5842 30.2937C22.0846 30.4708 21.6407 30.776 21.2974 31.1785C20.954 31.5809 20.7233 32.0664 20.6286 32.586H26.5723Z" fill="#FFCC00"/>
<path d="M29.583 37.0345H28.4863V29.3258H29.4502V30.4219C29.6662 30.0107 30.0032 29.6752 30.4162 29.4601C30.783 29.2638 31.195 29.1661 31.6113 29.1765V30.2044C31.1886 30.2023 30.7771 30.3403 30.4419 30.5967C30.2064 30.7773 30.0005 30.9931 29.8314 31.2365C29.6421 31.6037 29.5534 32.0141 29.5744 32.4263L29.583 37.0345Z" fill="#FFCC00"/>
<path d="M39.7639 36.6785C39.7664 37.1468 39.6581 37.6091 39.4479 38.0281C39.2376 38.4471 38.9314 38.8109 38.5538 39.0902C37.8259 39.6675 36.9258 39.9876 35.9952 39.9999C35.0647 40.0123 34.1564 39.7163 33.4133 39.1585C32.7837 38.6712 32.3322 37.9918 32.1281 37.2244H33.1348C33.3104 37.7849 33.6751 38.2677 34.1672 38.5912C34.6707 38.9721 35.2869 39.1761 35.9193 39.1713C36.6614 39.1805 37.3773 38.8977 37.9112 38.3844C38.1765 38.1534 38.3889 37.8685 38.5341 37.5488C38.6794 37.2291 38.754 36.8822 38.753 36.5313V35.802C38.4025 36.2187 37.9667 36.556 37.4746 36.7914C36.9826 37.0268 36.4457 37.1547 35.9 37.1668C35.3652 37.1914 34.8313 37.1015 34.3343 36.9033C33.8373 36.705 33.3889 36.4029 33.0192 36.0174C32.6316 35.6389 32.3248 35.1863 32.1172 34.6869C31.9096 34.1874 31.8055 33.6514 31.8111 33.1109C31.8022 32.5942 31.896 32.0807 32.0871 31.6002C32.2783 31.1197 32.563 30.6816 32.9249 30.311C33.2841 29.9265 33.7182 29.6188 34.2008 29.4067C34.6833 29.1946 35.2042 29.0825 35.7317 29.0773C36.2591 29.0721 36.7821 29.1739 37.2688 29.3765C37.7554 29.5791 38.1956 29.8782 38.5623 30.2556C38.957 30.6206 39.2689 31.0653 39.4772 31.5599C39.6856 32.0544 39.7855 32.5876 39.7704 33.1237L39.7639 36.6785ZM37.8491 35.286C38.4006 34.7309 38.7126 33.9833 38.7187 33.2026C38.7376 32.793 38.6699 32.3839 38.5202 32.0019C38.3704 31.6199 38.1418 31.2734 37.8491 30.9849C37.579 30.6809 37.2428 30.4424 36.866 30.2875C36.4892 30.1327 36.0819 30.0656 35.6751 30.0914C35.2887 30.1075 34.9098 30.2023 34.5616 30.3699C34.2135 30.5375 33.9036 30.7744 33.651 31.0659C33.3804 31.3501 33.1691 31.6849 33.0294 32.0509C32.8897 32.417 32.8243 32.807 32.8371 33.1983C32.8377 33.5896 32.9173 33.9768 33.0711 34.3369C33.2249 34.697 33.4498 35.0226 33.7324 35.2945C34.0033 35.5735 34.3288 35.7942 34.6887 35.9431C35.0486 36.092 35.4353 36.1659 35.825 36.1603C36.206 36.1649 36.5837 36.0885 36.9327 35.9363C37.2818 35.784 37.5942 35.5594 37.8491 35.2774V35.286Z" fill="#FFCC00"/>
<path d="M42.4622 39.7248H41.3377L42.5071 36.7906L39.5449 29.3271H40.6737L43.1454 35.4408L45.7542 29.3271H46.8402L42.4622 39.7248Z" fill="#FFCC00"/>
</g>
<defs>
<linearGradient id="paint0_linear_23127_8779" x1="4.98437" y1="5.14604" x2="47.7513" y2="5.14604" gradientUnits="userSpaceOnUse">
<stop offset="0.23" stop-color="#EA5429"/>
<stop offset="0.81" stop-color="#F8E919"/>
</linearGradient>
<clipPath id="clip0_23127_8779">
<rect width="51.4333" height="40.0003" fill="white"/>
</clipPath>
</defs>
</svg>
