<svg width="133" height="40" viewBox="0 0 133 40" fill="none" xmlns="http://www.w3.org/2000/svg">
<path d="M14.4997 13.3967C13.2553 12.2388 11.4158 11.5809 9.79271 11.5809C5.81611 11.5809 3.40851 14.5283 3.40851 18.2388C3.40851 21.2126 5.19392 24.2652 9.79271 24.2652C11.2535 24.2652 12.5249 23.9494 13.9857 22.8178V19.6336H9.22462V16.5809H17.1778V24.1863C15.3383 26.2126 13.0389 27.4232 9.79271 27.4232C2.84042 27.4232 0 22.9757 0 18.2388C0 13.1598 3.2462 8.47559 9.79271 8.47559C12.2815 8.47559 14.7702 9.39665 16.6638 11.2388L14.4997 13.3967Z" fill="#94C93F"/>
<path d="M59.9473 13.3967C58.7029 12.2388 56.8363 11.5809 55.2403 11.5809C51.2637 11.5809 48.8561 14.5283 48.8561 18.2388C48.8561 21.2126 50.6415 24.2652 55.2403 24.2652C56.7011 24.2652 57.9725 23.9494 59.4333 22.8178V19.6336H54.6992V16.5809H62.6524V24.1863C60.8129 26.2126 58.5135 27.4232 55.2673 27.4232C48.315 27.4232 45.4746 22.9757 45.4746 18.2388C45.4746 13.1598 48.7208 8.47559 55.2673 8.47559C57.7561 8.47559 60.2448 9.39665 62.1384 11.2388L59.9473 13.3967Z" fill="#94C93F"/>
<path d="M81.6333 27.0245H77.4673L72.057 20.9981H68.7026V27.0245H65.2129V8.97168C68.1615 8.97168 71.0831 8.998 74.0317 8.998C78.4141 9.02431 80.7135 11.8401 80.7135 14.9717C80.7135 17.4455 79.5503 19.9455 76.0336 20.6297L81.6603 26.7877V27.0245H81.6333ZM68.7296 12.1559V17.9191H74.0588C76.277 17.9191 77.2238 16.4718 77.2238 15.0244C77.2238 13.577 76.25 12.1296 74.0588 12.1296H68.7296V12.1559Z" fill="#94C93F"/>
<path d="M96.899 12.2924V9.00293H83.0215C83.0215 10.1082 83.0215 11.2135 83.0215 12.2924H89.9467H96.899Z" fill="#0C58A6"/>
<path d="M83.0215 16.4248C83.0215 19.9512 83.0215 23.4775 83.0215 27.0039H96.899V23.688H86.4841V19.609H96.5203V16.4511H89.9467H83.0215V16.4248Z" fill="#94C93F"/>
<path d="M113.424 27.0312V23.6891H103.009V19.6101H113.046V16.4521H99.5469C99.5469 19.9785 99.5469 23.5049 99.5469 27.0312H113.424Z" fill="#94C93F"/>
<path d="M113.424 9.00293H99.5469C99.5469 10.1082 99.5469 11.2135 99.5469 12.2924H113.424V9.00293Z" fill="#0C58A6"/>
<path d="M128.875 8.97168H132.365V27.0245H130.201V27.0508L120.462 14.8665V27.0245H116.973V8.998H119.813L128.875 20.156V8.97168Z" fill="#94C93F"/>
<path d="M27.6225 5.60528C28.0824 5.10528 28.407 4.55264 28.7587 4C29.462 6.55266 29.4891 9.42111 28.2177 11.8159C26.8651 14.3949 24.3222 16.1317 21.6441 17.2633C21.3736 15.9475 21.7253 14.5791 22.2663 13.3422C22.9696 11.7896 24.0247 10.4211 25.1608 9.15795C23.2131 10.5264 21.5359 12.3685 20.6973 14.5791C19.9128 16.8422 20.0751 19.4212 21.1572 21.5791C22.104 23.4476 23.7 25.0002 25.6478 25.895C27.325 26.6845 29.2186 26.895 31.031 26.6581C33.3845 26.316 35.5757 25.0792 37.0365 23.2371C35.9003 24.8423 34.2772 26.1581 32.3836 26.8687C30.1654 27.7371 27.5955 27.7634 25.3502 26.9739C23.2402 26.2371 21.4007 24.816 20.2104 22.9476C17.9651 19.5265 18.1815 14.737 20.8326 11.6053C22.7803 9.2369 25.5937 7.84215 27.6225 5.60528Z" fill="#94C93F"/>
<path d="M29.7625 9.34259C31.6561 9.31627 33.5227 9.94786 35.0376 11.0531C34.8482 11.29 34.713 11.5531 34.4966 11.7637C33.4686 12.79 32.4947 13.869 31.4938 14.8953C31.602 14.0268 31.7643 13.1847 31.8996 12.3163C32.0078 11.5795 32.1972 10.8163 32.1701 10.0531C31.5209 11.5795 30.9257 13.1321 30.2765 14.6584C29.9789 13.5532 29.7896 12.4216 29.5191 11.3163C29.3026 10.6584 29.6814 10.0005 29.7625 9.34259Z" fill="#94C93F"/>
<path d="M34.6808 11.7361C34.8161 11.5256 34.9784 11.3151 35.1137 11.1309C36.845 12.4203 38.0082 14.3941 38.3058 16.473C38.6304 18.552 38.0893 20.6836 36.8991 22.4205C35.4924 21.2099 34.1128 19.9731 32.7331 18.7362C33.8963 18.9467 35.0596 19.1836 36.2498 19.3941C36.7909 19.4994 37.3319 19.631 37.8729 19.6046C36.2769 18.9994 34.7349 18.3151 33.193 17.6572C34.8161 17.2362 36.4662 16.9204 38.0893 16.473C36.4121 16.3941 34.7079 16.473 33.0307 16.4204C34.3833 15.473 35.7359 14.4993 37.0884 13.5519C35.5194 14.1309 34.0045 14.8414 32.4355 15.473C33.1659 14.2098 33.9504 12.9993 34.6808 11.7361Z" fill="#94C93F"/>
<path d="M28.2177 13.1319C28.5423 12.6582 28.8399 12.1845 29.0833 11.6582C29.0833 12.6582 29.1104 13.6845 29.0563 14.6846C28.7046 14.2898 28.407 13.8951 28.1365 13.474C28.0013 13.3424 28.1636 13.2372 28.2177 13.1319Z" fill="#94C93F"/>
<path d="M26.918 14.7352C27.0262 14.4984 27.2426 14.3405 27.432 14.1562C27.6754 14.5247 27.8918 14.8931 28.1082 15.2615C27.7025 15.0773 27.2967 14.9457 26.918 14.7352Z" fill="#94C93F"/>
<path d="M25.0547 16.1554C25.4875 15.8659 25.8933 15.5501 26.2991 15.208C27.1106 15.8133 27.9222 16.4449 28.7067 17.0764C27.9222 17.2343 27.1377 17.3659 26.3802 17.5238C25.9203 17.0501 25.4875 16.6028 25.0547 16.1554Z" fill="#0C58A6"/>
<path d="M23.5547 17.0786C23.9875 16.8418 24.4203 16.5786 24.8532 16.3154C25.2589 16.7365 25.6918 17.1575 26.0975 17.5786C25.4483 17.7102 24.7991 17.8418 24.1228 17.947C23.9334 17.6575 23.744 17.3681 23.5547 17.0786Z" fill="#0C58A6"/>
<path d="M22.0391 17.8103C22.4719 17.5998 22.9047 17.4156 23.3105 17.1787C23.4999 17.4419 23.6622 17.705 23.8245 17.9945C23.2834 18.0998 22.7424 18.205 22.2014 18.3103C22.1743 18.1524 22.1202 17.9682 22.0391 17.8103Z" fill="#0C58A6"/>
<path d="M26.6016 17.7374C27.4131 17.5795 28.1976 17.4216 29.0092 17.29C29.7396 17.869 30.47 18.4216 31.2003 18.9743C30.2806 19.1848 29.3608 19.3953 28.4681 19.6322C27.8189 19.0006 27.1967 18.369 26.6016 17.7374Z" fill="#0C58A6"/>
<path d="M24.2812 18.1809C24.9575 18.0493 25.6338 17.9177 26.3101 17.7861C26.9323 18.4177 27.5545 19.0493 28.1767 19.6809C27.3381 19.8914 26.4995 20.0756 25.6609 20.2598C25.201 19.5756 24.7141 18.8651 24.2812 18.1809Z" fill="#0C58A6"/>
<path d="M21.2236 18.4979C21.0883 18.1032 21.5482 18.0505 21.8187 17.9189C21.8728 18.0768 21.9269 18.2084 21.981 18.3663C21.7376 18.419 21.467 18.4453 21.2236 18.4979Z" fill="#0C58A6"/>
<path d="M22.3301 18.5492C22.8982 18.4439 23.4392 18.3387 24.0073 18.2334C24.4672 18.9439 24.927 19.6282 25.3869 20.3387C24.6565 20.5229 23.9261 20.6808 23.1957 20.865C22.8982 20.0755 22.6006 19.3124 22.3301 18.5492Z" fill="#0C58A6"/>
<path d="M21.2754 18.7361C21.5459 18.6834 21.8164 18.6308 22.0869 18.6045C22.3575 19.3677 22.6821 20.1308 22.9526 20.894C22.628 20.9729 22.3034 21.0519 21.9787 21.1308C21.6271 20.3677 21.3836 19.5782 21.2754 18.7361Z" fill="#0C58A6"/>
<path d="M28.6191 19.8132C29.5659 19.6026 30.5128 19.3395 31.4596 19.1553C32.1088 19.6816 32.7851 20.1816 33.4614 20.7079C32.4875 21.05 31.4866 21.3921 30.5128 21.7342C29.8906 21.1027 29.2413 20.4711 28.6191 19.8132Z" fill="#0C58A6"/>
<path d="M25.7969 20.4988C26.6625 20.2883 27.5011 20.1041 28.3668 19.8936C28.989 20.5515 29.6382 21.183 30.2604 21.8409C29.2865 22.1831 28.3127 22.5252 27.3388 22.841C26.8248 22.0515 26.3109 21.2883 25.7969 20.4988Z" fill="#0C58A6"/>
<path d="M23.2734 21.0761C24.0309 20.8919 24.7613 20.734 25.5187 20.5498C26.0327 21.3393 26.5467 22.1288 27.0877 22.9183C26.195 23.234 25.2753 23.5498 24.3555 23.8656C24.0038 22.9446 23.6522 21.9972 23.2734 21.0761Z" fill="#0C58A6"/>
<path d="M30.709 21.9413C31.7099 21.5729 32.7108 21.2308 33.7117 20.8887C34.6044 21.5992 35.5242 22.2834 36.4439 22.994C35.7135 23.8361 34.8208 24.5466 33.7929 25.0729C32.7649 24.0466 31.7369 22.994 30.709 21.9413Z" fill="#0C58A6"/>
<path d="M22.0938 21.3648C22.4184 21.2859 22.743 21.2069 23.0406 21.1543C23.3922 22.1017 23.771 23.0227 24.1226 23.9701C23.284 23.2069 22.5807 22.3385 22.0938 21.3648Z" fill="#0C58A6"/>
<path d="M27.4668 23.0507C28.4677 22.7086 29.4416 22.3665 30.4425 22.0244C31.4704 23.0771 32.5255 24.1297 33.5534 25.2087C32.282 25.8139 30.8483 26.1034 29.4145 26.0245C28.7653 25.0508 28.116 24.0508 27.4668 23.0507Z" fill="#0C58A6"/>
<path d="M24.3789 24.1563C25.2987 23.7878 26.2725 23.472 27.2193 23.1562C27.8415 24.1036 28.4637 25.0773 29.1129 26.0247C27.3816 25.8668 25.6774 25.2615 24.3789 24.1563Z" fill="#0C58A6"/>
<path d="M4.22006 31.2106C4.00365 30.8685 3.40851 30.5264 2.73222 30.5264C1.86657 30.5264 1.43374 30.8949 1.43374 31.3422C1.43374 31.8685 2.08298 32.0264 2.84043 32.1054C4.13891 32.2633 5.35623 32.5791 5.35623 34.0528C5.35623 35.3949 4.11185 36.0002 2.73222 36.0002C1.46079 36.0002 0.459879 35.6054 0 34.5002L0.97386 34.0001C1.24438 34.6581 1.97477 34.9738 2.73222 34.9738C3.46261 34.9738 4.16596 34.7107 4.16596 34.0528C4.16596 33.4738 3.54377 33.237 2.73222 33.158C1.46079 33.0001 0.270517 32.6843 0.270517 31.3159C0.270517 30.0527 1.54195 29.5527 2.67812 29.5527C3.65198 29.5527 4.65289 29.8159 5.13982 30.7633L4.22006 31.2106Z" fill="#0C58A6"/>
<path d="M15.9832 32.8144C15.9562 34.3934 14.9823 35.9724 12.7641 35.9724C10.5458 35.9724 9.54492 34.446 9.54492 32.8408C9.54492 31.2355 10.5999 29.6302 12.7641 29.6302C14.9282 29.6039 15.9832 31.2092 15.9832 32.8144ZM10.7081 32.8408C10.7352 33.8408 11.2762 34.9197 12.7641 34.9197C14.2519 34.9197 14.7929 33.8408 14.82 32.8408C14.8471 31.8144 14.2519 30.6565 12.7641 30.6565C11.2762 30.6565 10.6811 31.8144 10.7081 32.8408Z" fill="#0C58A6"/>
<path d="M21.5871 29.7373V34.7637H24.8062V35.8163H20.4238V29.7373H21.5871Z" fill="#0C58A6"/>
<path d="M33.6502 34.6584H30.3769L29.8359 35.8163H28.5645L31.3778 29.7373H32.6763L35.4897 35.8163H34.1912L33.6502 34.6584ZM32.0271 31.0005L30.8638 33.5795H33.1903L32.0271 31.0005Z" fill="#0C58A6"/>
<path d="M45.1218 35.8192H43.7151L41.9026 33.7929H40.7664V35.8192H39.5762V29.7139C40.5771 29.7139 41.5509 29.7139 42.5519 29.7139C44.0126 29.7139 44.7971 30.6876 44.7971 31.7402C44.7971 32.5823 44.3914 33.4244 43.2281 33.6613L45.1218 35.7402V35.8192ZM40.7394 30.7928V32.7402H42.5248C43.2823 32.7402 43.6069 32.2665 43.6069 31.7665C43.6069 31.2665 43.2823 30.7928 42.5248 30.7928H40.7394Z" fill="#0C58A6"/>
<path d="M59.1952 31.2106C58.7624 30.8159 58.1402 30.6054 57.5991 30.6054C56.2465 30.6054 55.435 31.6054 55.435 32.8422C55.435 33.8423 56.0301 34.8686 57.5991 34.8686C58.0861 34.8686 58.5189 34.7633 59.0058 34.3949V33.3159H57.4098V32.2896H60.0879V34.8423C59.4657 35.5265 58.6812 35.9475 57.5991 35.9475C55.2456 35.9475 54.2988 34.4475 54.2988 32.8422C54.2988 31.1317 55.4079 29.5527 57.5991 29.5527C58.4377 29.5527 59.2763 29.8685 59.9256 30.4738L59.1952 31.2106Z" fill="#0C58A6"/>
<path d="M70.0886 35.8192H68.6819L66.8694 33.7929H65.7332V35.8192H64.543V29.7139C65.5439 29.7139 66.5177 29.7139 67.5187 29.7139C68.9794 29.7139 69.7639 30.6876 69.7639 31.7402C69.7639 32.5823 69.3582 33.4244 68.195 33.6613L70.0886 35.7402V35.8192ZM65.7332 30.7928V32.7402H67.5187C68.2761 32.7402 68.6007 32.2665 68.6007 31.7665C68.6007 31.2665 68.2761 30.7928 67.5187 30.7928H65.7332Z" fill="#0C58A6"/>
<path d="M80.284 32.8144C80.2569 34.3934 79.2831 35.9724 77.0649 35.9724C74.8466 35.9724 73.8457 34.446 73.8457 32.8408C73.8457 31.2355 74.9007 29.6302 77.0649 29.6302C79.229 29.6039 80.3111 31.2092 80.284 32.8144ZM75.0089 32.8408C75.036 33.8408 75.577 34.9197 77.0649 34.9197C78.5527 34.9197 79.0937 33.8408 79.1208 32.8408C79.1478 31.8144 78.5527 30.6565 77.0649 30.6565C75.577 30.6565 74.9819 31.8144 75.0089 32.8408Z" fill="#0C58A6"/>
<path d="M90.2102 29.7373V33.211C90.2102 35.0005 89.0741 35.9216 87.5051 35.9216C86.0172 35.9216 84.7188 35.0268 84.7188 33.211V29.7373H85.882V33.211C85.882 34.3163 86.5312 34.8953 87.5051 34.8953C88.4789 34.8953 89.02 34.2637 89.02 33.211V29.7373H90.2102Z" fill="#0C58A6"/>
<path d="M97.8686 34.0269H96.1102V35.8164H94.9199V29.7374C95.8938 29.7374 96.8947 29.7374 97.8686 29.7374C100.925 29.7111 100.952 34.0269 97.8686 34.0269ZM96.1102 32.9743H97.8686C99.3834 32.9743 99.3564 30.8164 97.8686 30.8164H96.1102V32.9743Z" fill="#0C58A6"/>
<path d="M111.099 29.7373V34.7637H114.318V35.8163H109.936V29.7373H111.099Z" fill="#0C58A6"/>
<path d="M119.408 30.7665H117.434V29.7139C119.246 29.7139 120.761 29.7139 122.573 29.7139V30.7665H120.599V35.8192H119.408V30.7665Z" fill="#0C58A6"/>
<path d="M132.369 32.711C132.396 34.2374 131.422 35.8163 129.231 35.8163C128.474 35.8163 127.554 35.8163 126.77 35.8163V29.7373C127.527 29.7373 128.447 29.7373 129.231 29.7373C131.368 29.7373 132.342 31.211 132.369 32.711ZM127.96 34.711H129.258C130.692 34.711 131.233 33.711 131.206 32.711C131.179 31.7636 130.611 30.8163 129.258 30.8163H127.96V34.711Z" fill="#0C58A6"/>
</svg>
